<?xml version="1.0" encoding="utf-8"?>
<!-- Generator: Adobe Illustrator 24.2.3, SVG Export Plug-In . SVG Version: 6.00 Build 0)  -->
<svg version="1.1" id="Calque_1" xmlns="http://www.w3.org/2000/svg" xmlns:xlink="http://www.w3.org/1999/xlink" x="0px" y="0px"
	 viewBox="0 0 1920 1080" style="enable-background:new 0 0 1920 1080;" xml:space="preserve">
<style type="text/css">
	.st0{fill:none;stroke:#000000;stroke-width:2;stroke-miterlimit:10;}
</style>
<path class="st0" d="M668.83,248.11c-41.78,16.63-77.56,36.23-122.97,87.26C470.55,420,459.28,550,505.45,653.71
	c29.62,66.53,75.96,96.51,97.35,108.13"/>
<path class="st0" d="M656.78,222.15c29.92,27.25,31.98,22.91,31.98,22.91l-30.15,30.74"/>
<path class="st0" d="M1139.95,735.9c34.32-29.06,62.01-59.02,88.83-121.84c44.48-104.19,13.81-231.02-62.97-314.66
	c-49.25-53.65-102.71-67.33-126.69-71.54"/>
<path class="st0" d="M1159.63,756.68c-37.04-16.32-37.61-11.55-37.61-11.55l18.81-38.74"/>
</svg>
